<?xml version="1.0" encoding="utf-8" standalone="no"?>
<!DOCTYPE svg PUBLIC "-//W3C//DTD SVG 1.1//EN"
  "http://www.w3.org/Graphics/SVG/1.1/DTD/svg11.dtd">
<svg height="640.398438pt" version="1.1" viewBox="0 0 281.035 640.398438" width="281.035pt" xmlns="http://www.w3.org/2000/svg" xmlns:xlink="http://www.w3.org/1999/xlink">
 <metadata>
  <rdf:RDF xmlns:cc="http://creativecommons.org/ns#" xmlns:dc="http://purl.org/dc/elements/1.1/" xmlns:rdf="http://www.w3.org/1999/02/22-rdf-syntax-ns#">
   <cc:Work>
    <dc:type rdf:resource="http://purl.org/dc/dcmitype/StillImage"/>
    <dc:date>2021-04-24T20:11:57.966711</dc:date>
    <dc:format>image/svg+xml</dc:format>
    <dc:creator>
     <cc:Agent>
      <dc:title>Matplotlib v3.4.1, https://matplotlib.org/</dc:title>
     </cc:Agent>
    </dc:creator>
   </cc:Work>
  </rdf:RDF>
 </metadata>
 <defs>
  <style type="text/css">*{stroke-linecap:butt;stroke-linejoin:round;}</style>
 </defs>
 <g id="figure_1">
  <g id="patch_1">
   <path d="M 0 640.398438 
L 281.035 640.398438 
L 281.035 0 
L 0 0 
z
" style="fill:none;"/>
  </g>
  <g id="axes_1">
   <g id="patch_2">
    <path d="M 34.56 633.198437 
L 273.835 633.198437 
L 273.835 25.798437 
L 34.56 25.798437 
z
" style="fill:#ffffff;"/>
   </g>
   <g id="patch_3">
    <path clip-path="url(#pe3510077e8)" d="M 71.183724 155.64025 
L 237.211276 155.64025 
L 237.211276 633.198437 
L 71.183724 633.198437 
z
" style="fill:#cfd4d3;"/>
   </g>
   <g id="patch_4">
    <path clip-path="url(#pe3510077e8)" d="M 34.56 25.798437 
L 273.835 25.798437 
L 273.835 155.64025 
L 34.56 155.64025 
z
" style="fill:#cfd4d3;"/>
   </g>
   <g id="patch_5">
    <path clip-path="url(#pe3510077e8)" d="M 60.196607 25.798437 
L 67.374857 25.798437 
L 67.374857 154.991041 
L 60.196607 154.991041 
z
"/>
   </g>
   <g id="patch_6">
    <path clip-path="url(#pe3510077e8)" d="M 241.020143 25.798437 
L 248.198393 25.798437 
L 248.198393 154.991041 
L 241.020143 154.991041 
z
"/>
   </g>
   <g id="patch_7">
    <path clip-path="url(#pe3510077e8)" d="M 60.196607 154.991041 
L 60.196607 154.666437 
L 53.018357 154.991041 
z
" style="stroke:#000000;stroke-linejoin:miter;"/>
   </g>
   <g id="patch_8">
    <path clip-path="url(#pe3510077e8)" d="M 248.198393 154.991041 
L 248.198393 154.666437 
L 255.376643 154.991041 
z
" style="stroke:#000000;stroke-linejoin:miter;"/>
   </g>
   <g id="patch_9">
    <path clip-path="url(#pe3510077e8)" d="M 34.56 25.798437 
L 60.196607 25.798437 
L 60.196607 154.666437 
L 34.56 154.666437 
z
" style="fill:url(#h138d20b153);"/>
   </g>
   <g id="patch_10">
    <path clip-path="url(#pe3510077e8)" d="M 248.198393 25.798437 
L 273.835 25.798437 
L 273.835 154.666437 
L 248.198393 154.666437 
z
" style="fill:url(#h138d20b153);"/>
   </g>
   <g id="patch_11">
    <path clip-path="url(#pe3510077e8)" d="M 85.833214 25.798437 
L 93.011464 25.798437 
L 93.011464 610.086595 
L 85.833214 610.086595 
z
"/>
   </g>
   <g id="patch_12">
    <path clip-path="url(#pe3510077e8)" d="M 215.383536 25.798437 
L 222.561786 25.798437 
L 222.561786 610.086595 
L 215.383536 610.086595 
z
"/>
   </g>
   <g id="patch_13">
    <path clip-path="url(#pe3510077e8)" d="M 85.833214 610.086595 
L 85.833214 609.76199 
L 78.654964 610.086595 
z
" style="stroke:#000000;stroke-linejoin:miter;"/>
   </g>
   <g id="patch_14">
    <path clip-path="url(#pe3510077e8)" d="M 222.561786 610.086595 
L 222.561786 609.76199 
L 229.740036 610.086595 
z
" style="stroke:#000000;stroke-linejoin:miter;"/>
   </g>
   <g id="patch_15">
    <path clip-path="url(#pe3510077e8)" d="M 71.183724 480.244782 
L 85.833214 480.244782 
L 85.833214 610.086595 
L 71.183724 610.086595 
z
" style="fill:url(#h138d20b153);"/>
   </g>
   <g id="patch_16">
    <path clip-path="url(#pe3510077e8)" d="M 222.561786 480.244782 
L 237.211276 480.244782 
L 237.211276 610.086595 
L 222.561786 610.086595 
z
" style="fill:url(#h138d20b153);"/>
   </g>
   <g id="patch_17">
    <path clip-path="url(#pe3510077e8)" d="M 71.183724 447.784329 
L 85.833214 447.784329 
L 85.833214 473.752691 
L 71.183724 473.752691 
z
" style="fill:url(#h138d20b153);"/>
   </g>
   <g id="patch_18">
    <path clip-path="url(#pe3510077e8)" d="M 222.561786 447.784329 
L 237.211276 447.784329 
L 237.211276 473.752691 
L 222.561786 473.752691 
z
" style="fill:url(#h138d20b153);"/>
   </g>
   <g id="matplotlib.axis_1">
    <g id="xtick_1">
     <g id="line2d_1">
      <defs>
       <path d="M 0 0 
L 0 -3.5 
" id="mecd4c3c4ce" style="stroke:#000000;stroke-width:0.8;"/>
      </defs>
      <g>
       <use style="stroke:#000000;stroke-width:0.8;" x="34.56" xlink:href="#mecd4c3c4ce" y="25.798437"/>
      </g>
     </g>
    </g>
    <g id="xtick_2">
     <g id="line2d_2">
      <g>
       <use style="stroke:#000000;stroke-width:0.8;" x="82.415" xlink:href="#mecd4c3c4ce" y="25.798437"/>
      </g>
     </g>
    </g>
    <g id="xtick_3">
     <g id="line2d_3">
      <g>
       <use style="stroke:#000000;stroke-width:0.8;" x="130.27" xlink:href="#mecd4c3c4ce" y="25.798437"/>
      </g>
     </g>
    </g>
    <g id="xtick_4">
     <g id="line2d_4">
      <g>
       <use style="stroke:#000000;stroke-width:0.8;" x="178.125" xlink:href="#mecd4c3c4ce" y="25.798437"/>
      </g>
     </g>
    </g>
    <g id="xtick_5">
     <g id="line2d_5">
      <g>
       <use style="stroke:#000000;stroke-width:0.8;" x="225.98" xlink:href="#mecd4c3c4ce" y="25.798437"/>
      </g>
     </g>
    </g>
    <g id="xtick_6">
     <g id="line2d_6">
      <g>
       <use style="stroke:#000000;stroke-width:0.8;" x="273.835" xlink:href="#mecd4c3c4ce" y="25.798437"/>
      </g>
     </g>
    </g>
    <g id="text_1">
     <!-- Well Schematic -->
     <g transform="translate(115.902187 14.798437)scale(0.1 -0.1)">
      <defs>
       <path d="M 213 4666 
L 850 4666 
L 1831 722 
L 2809 4666 
L 3519 4666 
L 4500 722 
L 5478 4666 
L 6119 4666 
L 4947 0 
L 4153 0 
L 3169 4050 
L 2175 0 
L 1381 0 
L 213 4666 
z
" id="DejaVuSans-57" transform="scale(0.015625)"/>
       <path d="M 3597 1894 
L 3597 1613 
L 953 1613 
Q 991 1019 1311 708 
Q 1631 397 2203 397 
Q 2534 397 2845 478 
Q 3156 559 3463 722 
L 3463 178 
Q 3153 47 2828 -22 
Q 2503 -91 2169 -91 
Q 1331 -91 842 396 
Q 353 884 353 1716 
Q 353 2575 817 3079 
Q 1281 3584 2069 3584 
Q 2775 3584 3186 3129 
Q 3597 2675 3597 1894 
z
M 3022 2063 
Q 3016 2534 2758 2815 
Q 2500 3097 2075 3097 
Q 1594 3097 1305 2825 
Q 1016 2553 972 2059 
L 3022 2063 
z
" id="DejaVuSans-65" transform="scale(0.015625)"/>
       <path d="M 603 4863 
L 1178 4863 
L 1178 0 
L 603 0 
L 603 4863 
z
" id="DejaVuSans-6c" transform="scale(0.015625)"/>
       <path id="DejaVuSans-20" transform="scale(0.015625)"/>
       <path d="M 3425 4513 
L 3425 3897 
Q 3066 4069 2747 4153 
Q 2428 4238 2131 4238 
Q 1616 4238 1336 4038 
Q 1056 3838 1056 3469 
Q 1056 3159 1242 3001 
Q 1428 2844 1947 2747 
L 2328 2669 
Q 3034 2534 3370 2195 
Q 3706 1856 3706 1288 
Q 3706 609 3251 259 
Q 2797 -91 1919 -91 
Q 1588 -91 1214 -16 
Q 841 59 441 206 
L 441 856 
Q 825 641 1194 531 
Q 1563 422 1919 422 
Q 2459 422 2753 634 
Q 3047 847 3047 1241 
Q 3047 1584 2836 1778 
Q 2625 1972 2144 2069 
L 1759 2144 
Q 1053 2284 737 2584 
Q 422 2884 422 3419 
Q 422 4038 858 4394 
Q 1294 4750 2059 4750 
Q 2388 4750 2728 4690 
Q 3069 4631 3425 4513 
z
" id="DejaVuSans-53" transform="scale(0.015625)"/>
       <path d="M 3122 3366 
L 3122 2828 
Q 2878 2963 2633 3030 
Q 2388 3097 2138 3097 
Q 1578 3097 1268 2742 
Q 959 2388 959 1747 
Q 959 1106 1268 751 
Q 1578 397 2138 397 
Q 2388 397 2633 464 
Q 2878 531 3122 666 
L 3122 134 
Q 2881 22 2623 -34 
Q 2366 -91 2075 -91 
Q 1284 -91 818 406 
Q 353 903 353 1747 
Q 353 2603 823 3093 
Q 1294 3584 2113 3584 
Q 2378 3584 2631 3529 
Q 2884 3475 3122 3366 
z
" id="DejaVuSans-63" transform="scale(0.015625)"/>
       <path d="M 3513 2113 
L 3513 0 
L 2938 0 
L 2938 2094 
Q 2938 2591 2744 2837 
Q 2550 3084 2163 3084 
Q 1697 3084 1428 2787 
Q 1159 2491 1159 1978 
L 1159 0 
L 581 0 
L 581 4863 
L 1159 4863 
L 1159 2956 
Q 1366 3272 1645 3428 
Q 1925 3584 2291 3584 
Q 2894 3584 3203 3211 
Q 3513 2838 3513 2113 
z
" id="DejaVuSans-68" transform="scale(0.015625)"/>
       <path d="M 3328 2828 
Q 3544 3216 3844 3400 
Q 4144 3584 4550 3584 
Q 5097 3584 5394 3201 
Q 5691 2819 5691 2113 
L 5691 0 
L 5113 0 
L 5113 2094 
Q 5113 2597 4934 2840 
Q 4756 3084 4391 3084 
Q 3944 3084 3684 2787 
Q 3425 2491 3425 1978 
L 3425 0 
L 2847 0 
L 2847 2094 
Q 2847 2600 2669 2842 
Q 2491 3084 2119 3084 
Q 1678 3084 1418 2786 
Q 1159 2488 1159 1978 
L 1159 0 
L 581 0 
L 581 3500 
L 1159 3500 
L 1159 2956 
Q 1356 3278 1631 3431 
Q 1906 3584 2284 3584 
Q 2666 3584 2933 3390 
Q 3200 3197 3328 2828 
z
" id="DejaVuSans-6d" transform="scale(0.015625)"/>
       <path d="M 2194 1759 
Q 1497 1759 1228 1600 
Q 959 1441 959 1056 
Q 959 750 1161 570 
Q 1363 391 1709 391 
Q 2188 391 2477 730 
Q 2766 1069 2766 1631 
L 2766 1759 
L 2194 1759 
z
M 3341 1997 
L 3341 0 
L 2766 0 
L 2766 531 
Q 2569 213 2275 61 
Q 1981 -91 1556 -91 
Q 1019 -91 701 211 
Q 384 513 384 1019 
Q 384 1609 779 1909 
Q 1175 2209 1959 2209 
L 2766 2209 
L 2766 2266 
Q 2766 2663 2505 2880 
Q 2244 3097 1772 3097 
Q 1472 3097 1187 3025 
Q 903 2953 641 2809 
L 641 3341 
Q 956 3463 1253 3523 
Q 1550 3584 1831 3584 
Q 2591 3584 2966 3190 
Q 3341 2797 3341 1997 
z
" id="DejaVuSans-61" transform="scale(0.015625)"/>
       <path d="M 1172 4494 
L 1172 3500 
L 2356 3500 
L 2356 3053 
L 1172 3053 
L 1172 1153 
Q 1172 725 1289 603 
Q 1406 481 1766 481 
L 2356 481 
L 2356 0 
L 1766 0 
Q 1100 0 847 248 
Q 594 497 594 1153 
L 594 3053 
L 172 3053 
L 172 3500 
L 594 3500 
L 594 4494 
L 1172 4494 
z
" id="DejaVuSans-74" transform="scale(0.015625)"/>
       <path d="M 603 3500 
L 1178 3500 
L 1178 0 
L 603 0 
L 603 3500 
z
M 603 4863 
L 1178 4863 
L 1178 4134 
L 603 4134 
L 603 4863 
z
" id="DejaVuSans-69" transform="scale(0.015625)"/>
      </defs>
      <use xlink:href="#DejaVuSans-57"/>
      <use x="93.001953" xlink:href="#DejaVuSans-65"/>
      <use x="154.525391" xlink:href="#DejaVuSans-6c"/>
      <use x="182.308594" xlink:href="#DejaVuSans-6c"/>
      <use x="210.091797" xlink:href="#DejaVuSans-20"/>
      <use x="241.878906" xlink:href="#DejaVuSans-53"/>
      <use x="305.355469" xlink:href="#DejaVuSans-63"/>
      <use x="360.335938" xlink:href="#DejaVuSans-68"/>
      <use x="423.714844" xlink:href="#DejaVuSans-65"/>
      <use x="485.238281" xlink:href="#DejaVuSans-6d"/>
      <use x="582.650391" xlink:href="#DejaVuSans-61"/>
      <use x="643.929688" xlink:href="#DejaVuSans-74"/>
      <use x="683.138672" xlink:href="#DejaVuSans-69"/>
      <use x="710.921875" xlink:href="#DejaVuSans-63"/>
     </g>
    </g>
   </g>
   <g id="matplotlib.axis_2">
    <g id="ytick_1">
     <g id="line2d_7">
      <defs>
       <path d="M 0 0 
L -3.5 0 
" id="m6f871c6447" style="stroke:#000000;stroke-width:0.8;"/>
      </defs>
      <g>
       <use style="stroke:#000000;stroke-width:0.8;" x="34.56" xlink:href="#m6f871c6447" y="25.798437"/>
      </g>
     </g>
     <g id="text_2">
      <!-- 0 -->
      <g transform="translate(22.47 28.837812)scale(0.08 -0.08)">
       <defs>
        <path d="M 2034 4250 
Q 1547 4250 1301 3770 
Q 1056 3291 1056 2328 
Q 1056 1369 1301 889 
Q 1547 409 2034 409 
Q 2525 409 2770 889 
Q 3016 1369 3016 2328 
Q 3016 3291 2770 3770 
Q 2525 4250 2034 4250 
z
M 2034 4750 
Q 2819 4750 3233 4129 
Q 3647 3509 3647 2328 
Q 3647 1150 3233 529 
Q 2819 -91 2034 -91 
Q 1250 -91 836 529 
Q 422 1150 422 2328 
Q 422 3509 836 4129 
Q 1250 4750 2034 4750 
z
" id="DejaVuSans-30" transform="scale(0.015625)"/>
       </defs>
       <use xlink:href="#DejaVuSans-30"/>
      </g>
     </g>
    </g>
    <g id="ytick_2">
     <g id="line2d_8">
      <g>
       <use style="stroke:#000000;stroke-width:0.8;" x="34.56" xlink:href="#m6f871c6447" y="155.64025"/>
      </g>
     </g>
     <g id="text_3">
      <!-- 2000 -->
      <g transform="translate(7.2 158.679625)scale(0.08 -0.08)">
       <defs>
        <path d="M 1228 531 
L 3431 531 
L 3431 0 
L 469 0 
L 469 531 
Q 828 903 1448 1529 
Q 2069 2156 2228 2338 
Q 2531 2678 2651 2914 
Q 2772 3150 2772 3378 
Q 2772 3750 2511 3984 
Q 2250 4219 1831 4219 
Q 1534 4219 1204 4116 
Q 875 4013 500 3803 
L 500 4441 
Q 881 4594 1212 4672 
Q 1544 4750 1819 4750 
Q 2544 4750 2975 4387 
Q 3406 4025 3406 3419 
Q 3406 3131 3298 2873 
Q 3191 2616 2906 2266 
Q 2828 2175 2409 1742 
Q 1991 1309 1228 531 
z
" id="DejaVuSans-32" transform="scale(0.015625)"/>
       </defs>
       <use xlink:href="#DejaVuSans-32"/>
       <use x="63.623047" xlink:href="#DejaVuSans-30"/>
       <use x="127.246094" xlink:href="#DejaVuSans-30"/>
       <use x="190.869141" xlink:href="#DejaVuSans-30"/>
      </g>
     </g>
    </g>
    <g id="ytick_3">
     <g id="line2d_9">
      <g>
       <use style="stroke:#000000;stroke-width:0.8;" x="34.56" xlink:href="#m6f871c6447" y="285.482063"/>
      </g>
     </g>
     <g id="text_4">
      <!-- 4000 -->
      <g transform="translate(7.2 288.521438)scale(0.08 -0.08)">
       <defs>
        <path d="M 2419 4116 
L 825 1625 
L 2419 1625 
L 2419 4116 
z
M 2253 4666 
L 3047 4666 
L 3047 1625 
L 3713 1625 
L 3713 1100 
L 3047 1100 
L 3047 0 
L 2419 0 
L 2419 1100 
L 313 1100 
L 313 1709 
L 2253 4666 
z
" id="DejaVuSans-34" transform="scale(0.015625)"/>
       </defs>
       <use xlink:href="#DejaVuSans-34"/>
       <use x="63.623047" xlink:href="#DejaVuSans-30"/>
       <use x="127.246094" xlink:href="#DejaVuSans-30"/>
       <use x="190.869141" xlink:href="#DejaVuSans-30"/>
      </g>
     </g>
    </g>
    <g id="ytick_4">
     <g id="line2d_10">
      <g>
       <use style="stroke:#000000;stroke-width:0.8;" x="34.56" xlink:href="#m6f871c6447" y="415.323876"/>
      </g>
     </g>
     <g id="text_5">
      <!-- 6000 -->
      <g transform="translate(7.2 418.363251)scale(0.08 -0.08)">
       <defs>
        <path d="M 2113 2584 
Q 1688 2584 1439 2293 
Q 1191 2003 1191 1497 
Q 1191 994 1439 701 
Q 1688 409 2113 409 
Q 2538 409 2786 701 
Q 3034 994 3034 1497 
Q 3034 2003 2786 2293 
Q 2538 2584 2113 2584 
z
M 3366 4563 
L 3366 3988 
Q 3128 4100 2886 4159 
Q 2644 4219 2406 4219 
Q 1781 4219 1451 3797 
Q 1122 3375 1075 2522 
Q 1259 2794 1537 2939 
Q 1816 3084 2150 3084 
Q 2853 3084 3261 2657 
Q 3669 2231 3669 1497 
Q 3669 778 3244 343 
Q 2819 -91 2113 -91 
Q 1303 -91 875 529 
Q 447 1150 447 2328 
Q 447 3434 972 4092 
Q 1497 4750 2381 4750 
Q 2619 4750 2861 4703 
Q 3103 4656 3366 4563 
z
" id="DejaVuSans-36" transform="scale(0.015625)"/>
       </defs>
       <use xlink:href="#DejaVuSans-36"/>
       <use x="63.623047" xlink:href="#DejaVuSans-30"/>
       <use x="127.246094" xlink:href="#DejaVuSans-30"/>
       <use x="190.869141" xlink:href="#DejaVuSans-30"/>
      </g>
     </g>
    </g>
    <g id="ytick_5">
     <g id="line2d_11">
      <g>
       <use style="stroke:#000000;stroke-width:0.8;" x="34.56" xlink:href="#m6f871c6447" y="545.165688"/>
      </g>
     </g>
     <g id="text_6">
      <!-- 8000 -->
      <g transform="translate(7.2 548.205063)scale(0.08 -0.08)">
       <defs>
        <path d="M 2034 2216 
Q 1584 2216 1326 1975 
Q 1069 1734 1069 1313 
Q 1069 891 1326 650 
Q 1584 409 2034 409 
Q 2484 409 2743 651 
Q 3003 894 3003 1313 
Q 3003 1734 2745 1975 
Q 2488 2216 2034 2216 
z
M 1403 2484 
Q 997 2584 770 2862 
Q 544 3141 544 3541 
Q 544 4100 942 4425 
Q 1341 4750 2034 4750 
Q 2731 4750 3128 4425 
Q 3525 4100 3525 3541 
Q 3525 3141 3298 2862 
Q 3072 2584 2669 2484 
Q 3125 2378 3379 2068 
Q 3634 1759 3634 1313 
Q 3634 634 3220 271 
Q 2806 -91 2034 -91 
Q 1263 -91 848 271 
Q 434 634 434 1313 
Q 434 1759 690 2068 
Q 947 2378 1403 2484 
z
M 1172 3481 
Q 1172 3119 1398 2916 
Q 1625 2713 2034 2713 
Q 2441 2713 2670 2916 
Q 2900 3119 2900 3481 
Q 2900 3844 2670 4047 
Q 2441 4250 2034 4250 
Q 1625 4250 1398 4047 
Q 1172 3844 1172 3481 
z
" id="DejaVuSans-38" transform="scale(0.015625)"/>
       </defs>
       <use xlink:href="#DejaVuSans-38"/>
       <use x="63.623047" xlink:href="#DejaVuSans-30"/>
       <use x="127.246094" xlink:href="#DejaVuSans-30"/>
       <use x="190.869141" xlink:href="#DejaVuSans-30"/>
      </g>
     </g>
    </g>
   </g>
   <g id="patch_19">
    <path d="M 34.56 633.198437 
L 34.56 25.798437 
" style="fill:none;stroke:#000000;stroke-linecap:square;stroke-linejoin:miter;stroke-width:0.8;"/>
   </g>
   <g id="patch_20">
    <path d="M 273.835 633.198437 
L 273.835 25.798437 
" style="fill:none;stroke:#000000;stroke-linecap:square;stroke-linejoin:miter;stroke-width:0.8;"/>
   </g>
   <g id="patch_21">
    <path d="M 34.56 633.198437 
L 273.835 633.198437 
" style="fill:none;stroke:#000000;stroke-linecap:square;stroke-linejoin:miter;stroke-width:0.8;"/>
   </g>
   <g id="patch_22">
    <path d="M 34.56 25.798437 
L 273.835 25.798437 
" style="fill:none;stroke:#000000;stroke-linecap:square;stroke-linejoin:miter;stroke-width:0.8;"/>
   </g>
  </g>
 </g>
 <defs>
  <clipPath id="pe3510077e8">
   <rect height="607.4" width="239.275" x="34.56" y="25.798437"/>
  </clipPath>
 </defs>
 <defs>
  <pattern height="72" id="h138d20b153" patternUnits="userSpaceOnUse" width="72" x="0" y="0">
   <rect fill="#60b1eb" height="73" width="73" x="0" y="0"/>
   <path d="M 0 73.2 
C 0.318244 73.2 0.623496 73.07356 0.848528 72.848528 
C 1.07356 72.623496 1.2 72.318244 1.2 72 
C 1.2 71.681756 1.07356 71.376504 0.848528 71.151472 
C 0.623496 70.92644 0.318244 70.8 0 70.8 
C -0.318244 70.8 -0.623496 70.92644 -0.848528 71.151472 
C -1.07356 71.376504 -1.2 71.681756 -1.2 72 
C -1.2 72.318244 -1.07356 72.623496 -0.848528 72.848528 
C -0.623496 73.07356 -0.318244 73.2 0 73.2 
z
M 12 73.2 
C 12.318244 73.2 12.623496 73.07356 12.848528 72.848528 
C 13.07356 72.623496 13.2 72.318244 13.2 72 
C 13.2 71.681756 13.07356 71.376504 12.848528 71.151472 
C 12.623496 70.92644 12.318244 70.8 12 70.8 
C 11.681756 70.8 11.376504 70.92644 11.151472 71.151472 
C 10.92644 71.376504 10.8 71.681756 10.8 72 
C 10.8 72.318244 10.92644 72.623496 11.151472 72.848528 
C 11.376504 73.07356 11.681756 73.2 12 73.2 
z
M 24 73.2 
C 24.318244 73.2 24.623496 73.07356 24.848528 72.848528 
C 25.07356 72.623496 25.2 72.318244 25.2 72 
C 25.2 71.681756 25.07356 71.376504 24.848528 71.151472 
C 24.623496 70.92644 24.318244 70.8 24 70.8 
C 23.681756 70.8 23.376504 70.92644 23.151472 71.151472 
C 22.92644 71.376504 22.8 71.681756 22.8 72 
C 22.8 72.318244 22.92644 72.623496 23.151472 72.848528 
C 23.376504 73.07356 23.681756 73.2 24 73.2 
z
M 36 73.2 
C 36.318244 73.2 36.623496 73.07356 36.848528 72.848528 
C 37.07356 72.623496 37.2 72.318244 37.2 72 
C 37.2 71.681756 37.07356 71.376504 36.848528 71.151472 
C 36.623496 70.92644 36.318244 70.8 36 70.8 
C 35.681756 70.8 35.376504 70.92644 35.151472 71.151472 
C 34.92644 71.376504 34.8 71.681756 34.8 72 
C 34.8 72.318244 34.92644 72.623496 35.151472 72.848528 
C 35.376504 73.07356 35.681756 73.2 36 73.2 
z
M 48 73.2 
C 48.318244 73.2 48.623496 73.07356 48.848528 72.848528 
C 49.07356 72.623496 49.2 72.318244 49.2 72 
C 49.2 71.681756 49.07356 71.376504 48.848528 71.151472 
C 48.623496 70.92644 48.318244 70.8 48 70.8 
C 47.681756 70.8 47.376504 70.92644 47.151472 71.151472 
C 46.92644 71.376504 46.8 71.681756 46.8 72 
C 46.8 72.318244 46.92644 72.623496 47.151472 72.848528 
C 47.376504 73.07356 47.681756 73.2 48 73.2 
z
M 60 73.2 
C 60.318244 73.2 60.623496 73.07356 60.848528 72.848528 
C 61.07356 72.623496 61.2 72.318244 61.2 72 
C 61.2 71.681756 61.07356 71.376504 60.848528 71.151472 
C 60.623496 70.92644 60.318244 70.8 60 70.8 
C 59.681756 70.8 59.376504 70.92644 59.151472 71.151472 
C 58.92644 71.376504 58.8 71.681756 58.8 72 
C 58.8 72.318244 58.92644 72.623496 59.151472 72.848528 
C 59.376504 73.07356 59.681756 73.2 60 73.2 
z
M 72 73.2 
C 72.318244 73.2 72.623496 73.07356 72.848528 72.848528 
C 73.07356 72.623496 73.2 72.318244 73.2 72 
C 73.2 71.681756 73.07356 71.376504 72.848528 71.151472 
C 72.623496 70.92644 72.318244 70.8 72 70.8 
C 71.681756 70.8 71.376504 70.92644 71.151472 71.151472 
C 70.92644 71.376504 70.8 71.681756 70.8 72 
C 70.8 72.318244 70.92644 72.623496 71.151472 72.848528 
C 71.376504 73.07356 71.681756 73.2 72 73.2 
z
M 6 61.2 
C 6.318244 61.2 6.623496 61.07356 6.848528 60.848528 
C 7.07356 60.623496 7.2 60.318244 7.2 60 
C 7.2 59.681756 7.07356 59.376504 6.848528 59.151472 
C 6.623496 58.92644 6.318244 58.8 6 58.8 
C 5.681756 58.8 5.376504 58.92644 5.151472 59.151472 
C 4.92644 59.376504 4.8 59.681756 4.8 60 
C 4.8 60.318244 4.92644 60.623496 5.151472 60.848528 
C 5.376504 61.07356 5.681756 61.2 6 61.2 
z
M 18 61.2 
C 18.318244 61.2 18.623496 61.07356 18.848528 60.848528 
C 19.07356 60.623496 19.2 60.318244 19.2 60 
C 19.2 59.681756 19.07356 59.376504 18.848528 59.151472 
C 18.623496 58.92644 18.318244 58.8 18 58.8 
C 17.681756 58.8 17.376504 58.92644 17.151472 59.151472 
C 16.92644 59.376504 16.8 59.681756 16.8 60 
C 16.8 60.318244 16.92644 60.623496 17.151472 60.848528 
C 17.376504 61.07356 17.681756 61.2 18 61.2 
z
M 30 61.2 
C 30.318244 61.2 30.623496 61.07356 30.848528 60.848528 
C 31.07356 60.623496 31.2 60.318244 31.2 60 
C 31.2 59.681756 31.07356 59.376504 30.848528 59.151472 
C 30.623496 58.92644 30.318244 58.8 30 58.8 
C 29.681756 58.8 29.376504 58.92644 29.151472 59.151472 
C 28.92644 59.376504 28.8 59.681756 28.8 60 
C 28.8 60.318244 28.92644 60.623496 29.151472 60.848528 
C 29.376504 61.07356 29.681756 61.2 30 61.2 
z
M 42 61.2 
C 42.318244 61.2 42.623496 61.07356 42.848528 60.848528 
C 43.07356 60.623496 43.2 60.318244 43.2 60 
C 43.2 59.681756 43.07356 59.376504 42.848528 59.151472 
C 42.623496 58.92644 42.318244 58.8 42 58.8 
C 41.681756 58.8 41.376504 58.92644 41.151472 59.151472 
C 40.92644 59.376504 40.8 59.681756 40.8 60 
C 40.8 60.318244 40.92644 60.623496 41.151472 60.848528 
C 41.376504 61.07356 41.681756 61.2 42 61.2 
z
M 54 61.2 
C 54.318244 61.2 54.623496 61.07356 54.848528 60.848528 
C 55.07356 60.623496 55.2 60.318244 55.2 60 
C 55.2 59.681756 55.07356 59.376504 54.848528 59.151472 
C 54.623496 58.92644 54.318244 58.8 54 58.8 
C 53.681756 58.8 53.376504 58.92644 53.151472 59.151472 
C 52.92644 59.376504 52.8 59.681756 52.8 60 
C 52.8 60.318244 52.92644 60.623496 53.151472 60.848528 
C 53.376504 61.07356 53.681756 61.2 54 61.2 
z
M 66 61.2 
C 66.318244 61.2 66.623496 61.07356 66.848528 60.848528 
C 67.07356 60.623496 67.2 60.318244 67.2 60 
C 67.2 59.681756 67.07356 59.376504 66.848528 59.151472 
C 66.623496 58.92644 66.318244 58.8 66 58.8 
C 65.681756 58.8 65.376504 58.92644 65.151472 59.151472 
C 64.92644 59.376504 64.8 59.681756 64.8 60 
C 64.8 60.318244 64.92644 60.623496 65.151472 60.848528 
C 65.376504 61.07356 65.681756 61.2 66 61.2 
z
M 0 49.2 
C 0.318244 49.2 0.623496 49.07356 0.848528 48.848528 
C 1.07356 48.623496 1.2 48.318244 1.2 48 
C 1.2 47.681756 1.07356 47.376504 0.848528 47.151472 
C 0.623496 46.92644 0.318244 46.8 0 46.8 
C -0.318244 46.8 -0.623496 46.92644 -0.848528 47.151472 
C -1.07356 47.376504 -1.2 47.681756 -1.2 48 
C -1.2 48.318244 -1.07356 48.623496 -0.848528 48.848528 
C -0.623496 49.07356 -0.318244 49.2 0 49.2 
z
M 12 49.2 
C 12.318244 49.2 12.623496 49.07356 12.848528 48.848528 
C 13.07356 48.623496 13.2 48.318244 13.2 48 
C 13.2 47.681756 13.07356 47.376504 12.848528 47.151472 
C 12.623496 46.92644 12.318244 46.8 12 46.8 
C 11.681756 46.8 11.376504 46.92644 11.151472 47.151472 
C 10.92644 47.376504 10.8 47.681756 10.8 48 
C 10.8 48.318244 10.92644 48.623496 11.151472 48.848528 
C 11.376504 49.07356 11.681756 49.2 12 49.2 
z
M 24 49.2 
C 24.318244 49.2 24.623496 49.07356 24.848528 48.848528 
C 25.07356 48.623496 25.2 48.318244 25.2 48 
C 25.2 47.681756 25.07356 47.376504 24.848528 47.151472 
C 24.623496 46.92644 24.318244 46.8 24 46.8 
C 23.681756 46.8 23.376504 46.92644 23.151472 47.151472 
C 22.92644 47.376504 22.8 47.681756 22.8 48 
C 22.8 48.318244 22.92644 48.623496 23.151472 48.848528 
C 23.376504 49.07356 23.681756 49.2 24 49.2 
z
M 36 49.2 
C 36.318244 49.2 36.623496 49.07356 36.848528 48.848528 
C 37.07356 48.623496 37.2 48.318244 37.2 48 
C 37.2 47.681756 37.07356 47.376504 36.848528 47.151472 
C 36.623496 46.92644 36.318244 46.8 36 46.8 
C 35.681756 46.8 35.376504 46.92644 35.151472 47.151472 
C 34.92644 47.376504 34.8 47.681756 34.8 48 
C 34.8 48.318244 34.92644 48.623496 35.151472 48.848528 
C 35.376504 49.07356 35.681756 49.2 36 49.2 
z
M 48 49.2 
C 48.318244 49.2 48.623496 49.07356 48.848528 48.848528 
C 49.07356 48.623496 49.2 48.318244 49.2 48 
C 49.2 47.681756 49.07356 47.376504 48.848528 47.151472 
C 48.623496 46.92644 48.318244 46.8 48 46.8 
C 47.681756 46.8 47.376504 46.92644 47.151472 47.151472 
C 46.92644 47.376504 46.8 47.681756 46.8 48 
C 46.8 48.318244 46.92644 48.623496 47.151472 48.848528 
C 47.376504 49.07356 47.681756 49.2 48 49.2 
z
M 60 49.2 
C 60.318244 49.2 60.623496 49.07356 60.848528 48.848528 
C 61.07356 48.623496 61.2 48.318244 61.2 48 
C 61.2 47.681756 61.07356 47.376504 60.848528 47.151472 
C 60.623496 46.92644 60.318244 46.8 60 46.8 
C 59.681756 46.8 59.376504 46.92644 59.151472 47.151472 
C 58.92644 47.376504 58.8 47.681756 58.8 48 
C 58.8 48.318244 58.92644 48.623496 59.151472 48.848528 
C 59.376504 49.07356 59.681756 49.2 60 49.2 
z
M 72 49.2 
C 72.318244 49.2 72.623496 49.07356 72.848528 48.848528 
C 73.07356 48.623496 73.2 48.318244 73.2 48 
C 73.2 47.681756 73.07356 47.376504 72.848528 47.151472 
C 72.623496 46.92644 72.318244 46.8 72 46.8 
C 71.681756 46.8 71.376504 46.92644 71.151472 47.151472 
C 70.92644 47.376504 70.8 47.681756 70.8 48 
C 70.8 48.318244 70.92644 48.623496 71.151472 48.848528 
C 71.376504 49.07356 71.681756 49.2 72 49.2 
z
M 6 37.2 
C 6.318244 37.2 6.623496 37.07356 6.848528 36.848528 
C 7.07356 36.623496 7.2 36.318244 7.2 36 
C 7.2 35.681756 7.07356 35.376504 6.848528 35.151472 
C 6.623496 34.92644 6.318244 34.8 6 34.8 
C 5.681756 34.8 5.376504 34.92644 5.151472 35.151472 
C 4.92644 35.376504 4.8 35.681756 4.8 36 
C 4.8 36.318244 4.92644 36.623496 5.151472 36.848528 
C 5.376504 37.07356 5.681756 37.2 6 37.2 
z
M 18 37.2 
C 18.318244 37.2 18.623496 37.07356 18.848528 36.848528 
C 19.07356 36.623496 19.2 36.318244 19.2 36 
C 19.2 35.681756 19.07356 35.376504 18.848528 35.151472 
C 18.623496 34.92644 18.318244 34.8 18 34.8 
C 17.681756 34.8 17.376504 34.92644 17.151472 35.151472 
C 16.92644 35.376504 16.8 35.681756 16.8 36 
C 16.8 36.318244 16.92644 36.623496 17.151472 36.848528 
C 17.376504 37.07356 17.681756 37.2 18 37.2 
z
M 30 37.2 
C 30.318244 37.2 30.623496 37.07356 30.848528 36.848528 
C 31.07356 36.623496 31.2 36.318244 31.2 36 
C 31.2 35.681756 31.07356 35.376504 30.848528 35.151472 
C 30.623496 34.92644 30.318244 34.8 30 34.8 
C 29.681756 34.8 29.376504 34.92644 29.151472 35.151472 
C 28.92644 35.376504 28.8 35.681756 28.8 36 
C 28.8 36.318244 28.92644 36.623496 29.151472 36.848528 
C 29.376504 37.07356 29.681756 37.2 30 37.2 
z
M 42 37.2 
C 42.318244 37.2 42.623496 37.07356 42.848528 36.848528 
C 43.07356 36.623496 43.2 36.318244 43.2 36 
C 43.2 35.681756 43.07356 35.376504 42.848528 35.151472 
C 42.623496 34.92644 42.318244 34.8 42 34.8 
C 41.681756 34.8 41.376504 34.92644 41.151472 35.151472 
C 40.92644 35.376504 40.8 35.681756 40.8 36 
C 40.8 36.318244 40.92644 36.623496 41.151472 36.848528 
C 41.376504 37.07356 41.681756 37.2 42 37.2 
z
M 54 37.2 
C 54.318244 37.2 54.623496 37.07356 54.848528 36.848528 
C 55.07356 36.623496 55.2 36.318244 55.2 36 
C 55.2 35.681756 55.07356 35.376504 54.848528 35.151472 
C 54.623496 34.92644 54.318244 34.8 54 34.8 
C 53.681756 34.8 53.376504 34.92644 53.151472 35.151472 
C 52.92644 35.376504 52.8 35.681756 52.8 36 
C 52.8 36.318244 52.92644 36.623496 53.151472 36.848528 
C 53.376504 37.07356 53.681756 37.2 54 37.2 
z
M 66 37.2 
C 66.318244 37.2 66.623496 37.07356 66.848528 36.848528 
C 67.07356 36.623496 67.2 36.318244 67.2 36 
C 67.2 35.681756 67.07356 35.376504 66.848528 35.151472 
C 66.623496 34.92644 66.318244 34.8 66 34.8 
C 65.681756 34.8 65.376504 34.92644 65.151472 35.151472 
C 64.92644 35.376504 64.8 35.681756 64.8 36 
C 64.8 36.318244 64.92644 36.623496 65.151472 36.848528 
C 65.376504 37.07356 65.681756 37.2 66 37.2 
z
M 0 25.2 
C 0.318244 25.2 0.623496 25.07356 0.848528 24.848528 
C 1.07356 24.623496 1.2 24.318244 1.2 24 
C 1.2 23.681756 1.07356 23.376504 0.848528 23.151472 
C 0.623496 22.92644 0.318244 22.8 0 22.8 
C -0.318244 22.8 -0.623496 22.92644 -0.848528 23.151472 
C -1.07356 23.376504 -1.2 23.681756 -1.2 24 
C -1.2 24.318244 -1.07356 24.623496 -0.848528 24.848528 
C -0.623496 25.07356 -0.318244 25.2 0 25.2 
z
M 12 25.2 
C 12.318244 25.2 12.623496 25.07356 12.848528 24.848528 
C 13.07356 24.623496 13.2 24.318244 13.2 24 
C 13.2 23.681756 13.07356 23.376504 12.848528 23.151472 
C 12.623496 22.92644 12.318244 22.8 12 22.8 
C 11.681756 22.8 11.376504 22.92644 11.151472 23.151472 
C 10.92644 23.376504 10.8 23.681756 10.8 24 
C 10.8 24.318244 10.92644 24.623496 11.151472 24.848528 
C 11.376504 25.07356 11.681756 25.2 12 25.2 
z
M 24 25.2 
C 24.318244 25.2 24.623496 25.07356 24.848528 24.848528 
C 25.07356 24.623496 25.2 24.318244 25.2 24 
C 25.2 23.681756 25.07356 23.376504 24.848528 23.151472 
C 24.623496 22.92644 24.318244 22.8 24 22.8 
C 23.681756 22.8 23.376504 22.92644 23.151472 23.151472 
C 22.92644 23.376504 22.8 23.681756 22.8 24 
C 22.8 24.318244 22.92644 24.623496 23.151472 24.848528 
C 23.376504 25.07356 23.681756 25.2 24 25.2 
z
M 36 25.2 
C 36.318244 25.2 36.623496 25.07356 36.848528 24.848528 
C 37.07356 24.623496 37.2 24.318244 37.2 24 
C 37.2 23.681756 37.07356 23.376504 36.848528 23.151472 
C 36.623496 22.92644 36.318244 22.8 36 22.8 
C 35.681756 22.8 35.376504 22.92644 35.151472 23.151472 
C 34.92644 23.376504 34.8 23.681756 34.8 24 
C 34.8 24.318244 34.92644 24.623496 35.151472 24.848528 
C 35.376504 25.07356 35.681756 25.2 36 25.2 
z
M 48 25.2 
C 48.318244 25.2 48.623496 25.07356 48.848528 24.848528 
C 49.07356 24.623496 49.2 24.318244 49.2 24 
C 49.2 23.681756 49.07356 23.376504 48.848528 23.151472 
C 48.623496 22.92644 48.318244 22.8 48 22.8 
C 47.681756 22.8 47.376504 22.92644 47.151472 23.151472 
C 46.92644 23.376504 46.8 23.681756 46.8 24 
C 46.8 24.318244 46.92644 24.623496 47.151472 24.848528 
C 47.376504 25.07356 47.681756 25.2 48 25.2 
z
M 60 25.2 
C 60.318244 25.2 60.623496 25.07356 60.848528 24.848528 
C 61.07356 24.623496 61.2 24.318244 61.2 24 
C 61.2 23.681756 61.07356 23.376504 60.848528 23.151472 
C 60.623496 22.92644 60.318244 22.8 60 22.8 
C 59.681756 22.8 59.376504 22.92644 59.151472 23.151472 
C 58.92644 23.376504 58.8 23.681756 58.8 24 
C 58.8 24.318244 58.92644 24.623496 59.151472 24.848528 
C 59.376504 25.07356 59.681756 25.2 60 25.2 
z
M 72 25.2 
C 72.318244 25.2 72.623496 25.07356 72.848528 24.848528 
C 73.07356 24.623496 73.2 24.318244 73.2 24 
C 73.2 23.681756 73.07356 23.376504 72.848528 23.151472 
C 72.623496 22.92644 72.318244 22.8 72 22.8 
C 71.681756 22.8 71.376504 22.92644 71.151472 23.151472 
C 70.92644 23.376504 70.8 23.681756 70.8 24 
C 70.8 24.318244 70.92644 24.623496 71.151472 24.848528 
C 71.376504 25.07356 71.681756 25.2 72 25.2 
z
M 6 13.2 
C 6.318244 13.2 6.623496 13.07356 6.848528 12.848528 
C 7.07356 12.623496 7.2 12.318244 7.2 12 
C 7.2 11.681756 7.07356 11.376504 6.848528 11.151472 
C 6.623496 10.92644 6.318244 10.8 6 10.8 
C 5.681756 10.8 5.376504 10.92644 5.151472 11.151472 
C 4.92644 11.376504 4.8 11.681756 4.8 12 
C 4.8 12.318244 4.92644 12.623496 5.151472 12.848528 
C 5.376504 13.07356 5.681756 13.2 6 13.2 
z
M 18 13.2 
C 18.318244 13.2 18.623496 13.07356 18.848528 12.848528 
C 19.07356 12.623496 19.2 12.318244 19.2 12 
C 19.2 11.681756 19.07356 11.376504 18.848528 11.151472 
C 18.623496 10.92644 18.318244 10.8 18 10.8 
C 17.681756 10.8 17.376504 10.92644 17.151472 11.151472 
C 16.92644 11.376504 16.8 11.681756 16.8 12 
C 16.8 12.318244 16.92644 12.623496 17.151472 12.848528 
C 17.376504 13.07356 17.681756 13.2 18 13.2 
z
M 30 13.2 
C 30.318244 13.2 30.623496 13.07356 30.848528 12.848528 
C 31.07356 12.623496 31.2 12.318244 31.2 12 
C 31.2 11.681756 31.07356 11.376504 30.848528 11.151472 
C 30.623496 10.92644 30.318244 10.8 30 10.8 
C 29.681756 10.8 29.376504 10.92644 29.151472 11.151472 
C 28.92644 11.376504 28.8 11.681756 28.8 12 
C 28.8 12.318244 28.92644 12.623496 29.151472 12.848528 
C 29.376504 13.07356 29.681756 13.2 30 13.2 
z
M 42 13.2 
C 42.318244 13.2 42.623496 13.07356 42.848528 12.848528 
C 43.07356 12.623496 43.2 12.318244 43.2 12 
C 43.2 11.681756 43.07356 11.376504 42.848528 11.151472 
C 42.623496 10.92644 42.318244 10.8 42 10.8 
C 41.681756 10.8 41.376504 10.92644 41.151472 11.151472 
C 40.92644 11.376504 40.8 11.681756 40.8 12 
C 40.8 12.318244 40.92644 12.623496 41.151472 12.848528 
C 41.376504 13.07356 41.681756 13.2 42 13.2 
z
M 54 13.2 
C 54.318244 13.2 54.623496 13.07356 54.848528 12.848528 
C 55.07356 12.623496 55.2 12.318244 55.2 12 
C 55.2 11.681756 55.07356 11.376504 54.848528 11.151472 
C 54.623496 10.92644 54.318244 10.8 54 10.8 
C 53.681756 10.8 53.376504 10.92644 53.151472 11.151472 
C 52.92644 11.376504 52.8 11.681756 52.8 12 
C 52.8 12.318244 52.92644 12.623496 53.151472 12.848528 
C 53.376504 13.07356 53.681756 13.2 54 13.2 
z
M 66 13.2 
C 66.318244 13.2 66.623496 13.07356 66.848528 12.848528 
C 67.07356 12.623496 67.2 12.318244 67.2 12 
C 67.2 11.681756 67.07356 11.376504 66.848528 11.151472 
C 66.623496 10.92644 66.318244 10.8 66 10.8 
C 65.681756 10.8 65.376504 10.92644 65.151472 11.151472 
C 64.92644 11.376504 64.8 11.681756 64.8 12 
C 64.8 12.318244 64.92644 12.623496 65.151472 12.848528 
C 65.376504 13.07356 65.681756 13.2 66 13.2 
z
M 0 1.2 
C 0.318244 1.2 0.623496 1.07356 0.848528 0.848528 
C 1.07356 0.623496 1.2 0.318244 1.2 0 
C 1.2 -0.318244 1.07356 -0.623496 0.848528 -0.848528 
C 0.623496 -1.07356 0.318244 -1.2 0 -1.2 
C -0.318244 -1.2 -0.623496 -1.07356 -0.848528 -0.848528 
C -1.07356 -0.623496 -1.2 -0.318244 -1.2 0 
C -1.2 0.318244 -1.07356 0.623496 -0.848528 0.848528 
C -0.623496 1.07356 -0.318244 1.2 0 1.2 
z
M 12 1.2 
C 12.318244 1.2 12.623496 1.07356 12.848528 0.848528 
C 13.07356 0.623496 13.2 0.318244 13.2 0 
C 13.2 -0.318244 13.07356 -0.623496 12.848528 -0.848528 
C 12.623496 -1.07356 12.318244 -1.2 12 -1.2 
C 11.681756 -1.2 11.376504 -1.07356 11.151472 -0.848528 
C 10.92644 -0.623496 10.8 -0.318244 10.8 0 
C 10.8 0.318244 10.92644 0.623496 11.151472 0.848528 
C 11.376504 1.07356 11.681756 1.2 12 1.2 
z
M 24 1.2 
C 24.318244 1.2 24.623496 1.07356 24.848528 0.848528 
C 25.07356 0.623496 25.2 0.318244 25.2 0 
C 25.2 -0.318244 25.07356 -0.623496 24.848528 -0.848528 
C 24.623496 -1.07356 24.318244 -1.2 24 -1.2 
C 23.681756 -1.2 23.376504 -1.07356 23.151472 -0.848528 
C 22.92644 -0.623496 22.8 -0.318244 22.8 0 
C 22.8 0.318244 22.92644 0.623496 23.151472 0.848528 
C 23.376504 1.07356 23.681756 1.2 24 1.2 
z
M 36 1.2 
C 36.318244 1.2 36.623496 1.07356 36.848528 0.848528 
C 37.07356 0.623496 37.2 0.318244 37.2 0 
C 37.2 -0.318244 37.07356 -0.623496 36.848528 -0.848528 
C 36.623496 -1.07356 36.318244 -1.2 36 -1.2 
C 35.681756 -1.2 35.376504 -1.07356 35.151472 -0.848528 
C 34.92644 -0.623496 34.8 -0.318244 34.8 0 
C 34.8 0.318244 34.92644 0.623496 35.151472 0.848528 
C 35.376504 1.07356 35.681756 1.2 36 1.2 
z
M 48 1.2 
C 48.318244 1.2 48.623496 1.07356 48.848528 0.848528 
C 49.07356 0.623496 49.2 0.318244 49.2 0 
C 49.2 -0.318244 49.07356 -0.623496 48.848528 -0.848528 
C 48.623496 -1.07356 48.318244 -1.2 48 -1.2 
C 47.681756 -1.2 47.376504 -1.07356 47.151472 -0.848528 
C 46.92644 -0.623496 46.8 -0.318244 46.8 0 
C 46.8 0.318244 46.92644 0.623496 47.151472 0.848528 
C 47.376504 1.07356 47.681756 1.2 48 1.2 
z
M 60 1.2 
C 60.318244 1.2 60.623496 1.07356 60.848528 0.848528 
C 61.07356 0.623496 61.2 0.318244 61.2 0 
C 61.2 -0.318244 61.07356 -0.623496 60.848528 -0.848528 
C 60.623496 -1.07356 60.318244 -1.2 60 -1.2 
C 59.681756 -1.2 59.376504 -1.07356 59.151472 -0.848528 
C 58.92644 -0.623496 58.8 -0.318244 58.8 0 
C 58.8 0.318244 58.92644 0.623496 59.151472 0.848528 
C 59.376504 1.07356 59.681756 1.2 60 1.2 
z
M 72 1.2 
C 72.318244 1.2 72.623496 1.07356 72.848528 0.848528 
C 73.07356 0.623496 73.2 0.318244 73.2 0 
C 73.2 -0.318244 73.07356 -0.623496 72.848528 -0.848528 
C 72.623496 -1.07356 72.318244 -1.2 72 -1.2 
C 71.681756 -1.2 71.376504 -1.07356 71.151472 -0.848528 
C 70.92644 -0.623496 70.8 -0.318244 70.8 0 
C 70.8 0.318244 70.92644 0.623496 71.151472 0.848528 
C 71.376504 1.07356 71.681756 1.2 72 1.2 
z
" style="fill:#000000;stroke:#000000;stroke-linecap:butt;stroke-linejoin:miter;stroke-width:1.0;"/>
  </pattern>
 </defs>
</svg>
